<svg width="34.962952" height="32.000000" viewBox="0 0 34.963 32" fill="none" xmlns="http://www.w3.org/2000/svg" xmlns:xlink="http://www.w3.org/1999/xlink">
	<desc>
			Created with Pixso.
	</desc>
	<defs/>
	<rect id="envelope" width="34.962963" height="32.000000" fill="#FFFFFF" fill-opacity="0"/>
	<path id="Vector" d="M0.729858 5.94727C5.52838 9.66675 13.9483 16.2102 16.423 18.2507C16.7552 18.5259 17.1116 18.666 17.4814 18.666C17.8506 18.666 18.2064 18.5273 18.5378 18.2532C21.0146 16.2109 29.4346 9.66675 34.2332 5.94727C34.5319 5.71606 34.5775 5.30981 34.3356 5.02734C33.7765 4.37427 32.9428 4 32.0493 4L2.91357 4C2.0202 4 1.18646 4.37427 0.627441 5.02734C0.385559 5.30981 0.431091 5.71606 0.729858 5.94727Z" fill="#CD06FF" fill-opacity="1.000000" fill-rule="nonzero"/>
	<path id="Vector" d="M34.5405 7.96313C34.2823 7.85303 33.9785 7.89136 33.7637 8.05933C28.4423 12.1882 21.6505 17.4807 19.5137 19.2429C18.3144 20.2339 16.6499 20.2339 15.4478 19.2417C13.1701 17.3635 5.54327 11.4292 1.19928 8.05933C0.982971 7.89136 0.678589 7.85425 0.422485 7.96289C0.165039 8.07251 0 8.30811 0 8.56787L0 25.3335C0 26.8042 1.3067 28.0002 2.91357 28.0002L32.0494 28.0002C33.6563 28.0002 34.963 26.8042 34.963 25.3335L34.963 8.56787C34.963 8.30811 34.7979 8.07178 34.5405 7.96313Z" fill="#CD06FF" fill-opacity="1.000000" fill-rule="nonzero"/>
</svg>
