<svg width="34.962952" height="32.000000" viewBox="0 0 34.963 32" fill="none" xmlns="http://www.w3.org/2000/svg" xmlns:xlink="http://www.w3.org/1999/xlink">
	<desc>
			Created with Pixso.
	</desc>
	<defs/>
	<rect id="location" width="34.962963" height="32.000000" fill="#FFFFFF" fill-opacity="0"/>
	<path id="Vector" d="M17.4814 0C11.338 0 6.21411 4.5293 6.21411 10.3125C6.21411 12.5127 6.93646 14.4746 8.32275 16.313L16.6192 28.1616C17.0217 28.7375 17.9421 28.7366 18.3438 28.1616L26.6762 16.2725C28.0327 14.5176 28.7488 12.4568 28.7488 10.3125C28.7488 4.62622 23.6943 0 17.4814 0ZM17.4814 15C14.6576 15 12.3599 12.897 12.3599 10.3125C12.3599 7.72803 14.6576 5.625 17.4814 5.625C20.3054 5.625 22.603 7.72803 22.603 10.3125C22.603 12.897 20.3054 15 17.4814 15Z" fill="#CD06FF" fill-opacity="1.000000" fill-rule="nonzero"/>
	<path id="Vector" d="M25.4891 21.5435L20.3313 28.9238C18.9962 30.8291 15.9593 30.8228 14.6306 28.9258L9.46442 21.5454C4.91895 22.5073 2.11688 24.2693 2.11688 26.375C2.11688 30.0288 10.0333 32 17.4814 32C24.9297 32 32.8461 30.0288 32.8461 26.375C32.8461 24.2678 30.04 22.5049 25.4891 21.5435Z" fill="#CD06FF" fill-opacity="1.000000" fill-rule="nonzero"/>
</svg>
