<svg width="120.000000" height="66.000000" viewBox="0 0 120 66" fill="none" xmlns="http://www.w3.org/2000/svg" xmlns:xlink="http://www.w3.org/1999/xlink">
	<desc>
			Created with Pixso.
	</desc>
	<defs/>
	<path d="M39.6553 32.5898L39.6553 40.0361L47.0527 40.0361L47.0527 43.4053Q44.8799 44.6992 43.1953 45.2363C42.0723 45.5944 40.8923 45.7734 39.6553 45.7734Q36.7965 45.7734 34.8531 44.4397Q34.141 43.951 33.5518 43.2832Q31.3789 40.793 31.3789 34.9824Q31.3789 29.5137 33.5273 26.999Q34.3527 26.0345 35.3895 25.4364Q37.082 24.46 39.3379 24.46Q41.7793 24.46 43.3418 25.5342Q43.7453 25.8074 44.0889 26.1421Q45.0963 27.1237 45.5879 28.6348L56.2568 26.7305Q55.2803 23.2637 53.3271 21.0176C52.0413 19.5039 50.4137 18.389 48.4443 17.6729Q45.5146 16.5986 39.582 16.5986Q33.4297 16.5986 29.792 18.332Q26.9518 19.7001 24.9449 21.847Q23.6568 23.225 22.7119 24.9238Q20.2949 29.2451 20.2949 35.1045Q20.2949 40.6709 22.4922 44.9678Q23.9854 47.8558 26.2838 49.7843Q27.405 50.7251 28.7178 51.4375Q32.7461 53.6104 39.1182 53.6104C42.5687 53.6104 45.5472 53.2116 48.0537 52.4141C50.5765 51.6003 53.4736 50.0784 56.7451 47.8486L56.7451 32.5898L39.6553 32.5898ZM65.6541 22.7694Q61.9209 27.4652 61.9209 35.1289C61.9209 39.3119 62.7428 42.7949 64.3867 45.5781Q66.3235 48.8573 69.1792 50.7508Q69.9592 51.2679 70.8076 51.6816C73.4606 52.9675 76.8053 53.6104 80.8418 53.6104C84.8131 53.6104 88.1253 52.8698 90.7783 51.3887C93.4476 49.8913 95.4821 47.8079 96.8818 45.1387Q99.0059 41.1104 99.0059 34.8359Q99.0059 27.3026 95.3331 22.7001Q94.7923 22.0224 94.1719 21.4082Q93.772 21.0104 93.3441 20.6454Q88.5987 16.5986 80.4023 16.5986Q72.8459 16.5986 68.1706 20.2688Q67.4532 20.8319 66.8037 21.4814Q66.1904 22.0948 65.6541 22.7694ZM74.9824 42.9658Q72.9805 40.5977 72.9805 35.1777C72.9805 31.5319 73.6559 28.9196 75.0068 27.3408C76.3577 25.762 78.1481 24.9727 80.3779 24.9727Q82.7152 24.9727 84.3959 26.0231Q85.2257 26.5417 85.8955 27.3164Q87.9463 29.6357 87.9463 34.6895C87.9463 38.6934 87.2953 41.4684 85.9932 43.0146C84.6911 44.5609 82.8519 45.334 80.4756 45.334Q78.2223 45.334 76.5775 44.3336Q75.6917 43.7948 74.9824 42.9658Z" fill="#FFFFFF" fill-opacity="1.000000" fill-rule="evenodd"/>
	<path d="M1 34L0 34L0 66L51 66L51 65L1 65L1 34Z" fill="#CD06FF" fill-opacity="1.000000" fill-rule="evenodd"/>
	<path d="M119 32L120 32L120 0L69 0L69 1L119 1L119 32Z" fill="#CD06FF" fill-opacity="1.000000" fill-rule="evenodd"/>
</svg>
