<svg width="34.962952" height="32.000000" viewBox="0 0 34.963 32" fill="none" xmlns="http://www.w3.org/2000/svg" xmlns:xlink="http://www.w3.org/1999/xlink">
	<desc>
			Created with Pixso.
	</desc>
	<defs/>
	<rect id="bx:bxs-phone-call" width="34.962963" height="32.000000" fill="#CD06FF" fill-opacity="0"/>
	<path id="Vector" d="M29.1358 14.6653L32.0494 14.6653C32.0494 7.8252 26.4072 2.6665 18.9237 2.6665L18.9237 5.33325C24.8412 5.33325 29.1358 9.25708 29.1358 14.6653Z" fill="#CD06FF" fill-opacity="1.000000" fill-rule="nonzero"/>
	<path id="Vector" d="M18.9383 10.6667C22.002 10.6667 23.3087 11.8625 23.3087 14.6667L26.2222 14.6667C26.2222 10.3667 23.6365 8 18.9383 8L18.9383 10.6667ZM23.9235 17.9241C23.6435 17.6912 23.2757 17.5669 22.8976 17.5776C22.5195 17.5884 22.1607 17.7332 21.897 17.9814L18.4109 21.2627C17.5718 21.116 15.8849 20.6348 14.1484 19.0493C12.4119 17.4587 11.886 15.9106 11.7301 15.1479L15.3124 11.9561C15.5839 11.7148 15.7423 11.3865 15.754 11.0403C15.7657 10.6941 15.6298 10.3574 15.375 10.1013L9.99219 4.68408C9.7373 4.42725 9.38306 4.27124 9.0047 4.24976C8.62628 4.22803 8.2536 4.34229 7.96576 4.56812L4.8045 7.04932C4.55267 7.28076 4.40234 7.58862 4.38208 7.91455C4.36023 8.24805 3.94354 16.144 10.6331 22.2693C16.4691 27.6094 23.7792 28 25.7925 28C26.0868 28 26.2674 27.9919 26.3155 27.9893C26.6717 27.9712 27.0079 27.8328 27.2595 27.6013L29.9691 24.7065C30.216 24.4434 30.341 24.1023 30.3176 23.7561C30.2943 23.4097 30.1243 23.0854 29.8438 22.8521L23.9235 17.9241Z" fill="#CD06FF" fill-opacity="1.000000" fill-rule="nonzero"/>
</svg>
