<svg width="50.000000" height="50.002441" viewBox="0 0 50 50.0024" fill="none" xmlns="http://www.w3.org/2000/svg" xmlns:xlink="http://www.w3.org/1999/xlink">
	<desc>
			Created with Pixso.
	</desc>
	<defs/>
	<path id="Vector" d="M25.0006 0C11.1949 0 0 11.1936 0 25.0007C0 35.2378 6.15576 44.0315 14.9648 47.8982C14.8942 46.1526 14.9513 44.0557 15.4 42.1589C15.8808 40.1282 18.6167 28.5359 18.6167 28.5359C18.6167 28.5359 17.818 26.9397 17.818 24.5808C17.818 20.8762 19.9654 18.1077 22.6385 18.1077C24.9122 18.1077 26.0109 19.8154 26.0109 21.8608C26.0109 24.1467 24.5538 27.5635 23.8038 30.7327C23.1769 33.386 25.134 35.5481 27.75 35.5481C32.4865 35.5481 35.6763 29.4648 35.6763 22.2559C35.6763 16.7783 31.9865 12.677 25.2744 12.677C17.6904 12.677 12.966 18.332 12.966 24.6487C12.966 26.8281 13.6083 28.3635 14.6147 29.5513C15.0769 30.0981 15.141 30.3179 14.9737 30.946C14.8539 31.4058 14.5782 32.5129 14.4648 32.9519C14.2987 33.5852 13.7859 33.8108 13.2128 33.5776C9.71988 32.1514 8.09296 28.3262 8.09296 24.0264C8.09296 16.9238 14.0821 8.40894 25.9603 8.40894C35.5058 8.40894 41.7878 15.3159 41.7878 22.7319C41.7878 32.5378 36.3353 39.8647 28.2981 39.8647C25.6 39.8647 23.0609 38.405 22.191 36.7488C22.191 36.7488 20.7397 42.5078 20.4327 43.6218C19.9026 45.5493 18.8647 47.4763 17.916 48.9768C20.2163 49.657 22.6025 50.0024 25.0013 50.0024C38.8064 50.0012 50 38.8071 50 25.0007C50 11.1936 38.8064 0 25.0006 0Z" fill="#FFFFFF" fill-opacity="1.000000" fill-rule="nonzero"/>
</svg>
