<svg width="50.000000" height="50.000000" viewBox="0 0 50 50" fill="none" xmlns="http://www.w3.org/2000/svg" xmlns:xlink="http://www.w3.org/1999/xlink">
	<desc>
			Created with Pixso.
	</desc>
	<defs>
		<clipPath id="clip2212_10">
			<rect id="foundation:social-stumbleupon" width="50.000000" height="50.000000" fill="white" fill-opacity="0"/>
		</clipPath>
	</defs>
	<rect id="foundation:social-stumbleupon" width="50.000000" height="50.000000" fill="#FFFFFF" fill-opacity="0"/>
	<g clip-path="url(#clip2212_10)">
		<path id="Vector" d="M44.7441 9.66895C48.1583 14.0493 50.0085 19.446 49.9999 24.9998C49.9999 38.8049 38.805 49.9998 25.0005 49.9998C15.2871 49.9998 6.86594 44.4573 2.72748 36.3645L13.6236 36.3645C18.8159 36.3645 22.4428 33.5657 22.4428 29.092C22.4428 19.6106 11.505 23.4734 11.505 20.1086C11.505 18.4875 12.8057 17.8977 15.1858 17.8977L22.7691 17.8977C24.8711 17.8977 27.3435 18.2747 27.3435 20.5684L27.3435 28.124C27.3435 33.5952 31.6159 36.3638 36.0441 36.3638C40.548 36.3638 44.7435 33.5952 44.7435 28.124L44.7435 9.66895L44.7441 9.66895Z" fill="#FFFFFF" fill-opacity="1.000000" fill-rule="evenodd"/>
		<path id="Vector" d="M25.0005 0C30.0173 -0.00708008 34.919 1.50269 39.0627 4.33081L39.0627 28.3013C39.0627 29.9629 37.7037 31.3225 36.0447 31.3225C34.3838 31.3225 33.0261 29.9629 33.0261 28.3013L33.0261 21.1187C33.0261 15.3845 30.1242 12.9993 26.3447 12.9993L14.0441 12.9993C9.59088 12.9993 5.89664 15.834 5.89664 20.3289C5.89664 22.6289 6.8819 25.9993 11.5415 26.8352C15.337 27.5186 16.8351 27.3198 16.8351 29.3506C16.8351 31.3225 14.6261 31.3225 11.7101 31.3225L0.808197 31.3225C0.269684 29.2581 -0.00198364 27.1333 -0.000152588 25C-0.000152588 11.198 11.196 0 25.0005 0Z" fill="#FFFFFF" fill-opacity="1.000000" fill-rule="evenodd"/>
	</g>
</svg>
