<svg width="48.000000" height="48.000000" viewBox="0 0 48 48" fill="none" xmlns="http://www.w3.org/2000/svg" xmlns:xlink="http://www.w3.org/1999/xlink">
	<desc>
			Created with Pixso.
	</desc>
	<defs/>
	<path id="Vector" d="M48 24C48 30.3652 45.4714 36.4697 40.9706 40.9705C36.4697 45.4714 30.3652 48 24 48C17.6348 48 11.5303 45.4714 7.02945 40.9705C2.52856 36.4697 0 30.3652 0 24C0 17.6348 2.52856 11.5303 7.02945 7.02954C11.5303 2.52856 17.6348 0 24 0C30.3652 0 36.4697 2.52856 40.9706 7.02954C45.4714 11.5303 48 17.6348 48 24ZM24.861 17.718C22.527 18.6899 17.859 20.7 10.863 23.748C9.729 24.198 9.13199 24.6421 9.078 25.074C8.98801 25.803 9.90302 26.0911 11.148 26.4839L11.673 26.6489C12.897 27.0481 14.547 27.5129 15.402 27.531C16.182 27.5491 17.049 27.231 18.006 26.571C24.543 22.158 27.918 19.929 28.128 19.8811C28.278 19.845 28.488 19.803 28.626 19.929C28.767 20.052 28.752 20.2891 28.737 20.3521C28.647 20.739 25.056 24.075 23.199 25.803C22.62 26.343 22.209 26.7241 22.125 26.811C21.94 27 21.752 27.186 21.561 27.3689C20.421 28.467 19.569 29.2891 21.606 30.6331C22.587 31.281 23.373 31.812 24.156 32.3459C25.008 32.928 25.86 33.5071 26.964 34.2329C27.243 34.4131 27.513 34.6079 27.774 34.7939C28.767 35.502 29.664 36.1379 30.765 36.0359C31.407 35.9761 32.07 35.376 32.406 33.5759C33.201 29.325 34.764 20.1179 35.124 16.323C35.146 16.0076 35.1329 15.6907 35.085 15.3779C35.0568 15.1257 34.9347 14.8933 34.743 14.7271C34.47 14.5386 34.1446 14.4409 33.813 14.448C32.913 14.4629 31.524 14.946 24.861 17.718Z" fill="#FFFFFF" fill-opacity="1.000000" fill-rule="nonzero"/>
</svg>
