<svg width="48.000000" height="48.000000" viewBox="0 0 48 48" fill="none" xmlns="http://www.w3.org/2000/svg" xmlns:xlink="http://www.w3.org/1999/xlink">
	<desc>
			Created with Pixso.
	</desc>
	<defs/>
	<path id="Vector" d="M24 0C10.745 0 0 10.7451 0 24C0 37.2549 10.745 48 24 48C37.255 48 48 37.2549 48 24C48 10.7451 37.255 0 24 0ZM33.23 27.0774C33.23 27.0774 35.3525 29.1726 35.875 30.145C35.89 30.165 35.8975 30.1851 35.9025 30.1951C36.115 30.5525 36.165 30.8301 36.06 31.0376C35.885 31.3826 35.285 31.5525 35.08 31.5674L31.33 31.5674C31.07 31.5674 30.525 31.5 29.865 31.0449C29.3575 30.6899 28.8575 30.1074 28.37 29.54C27.6425 28.6951 27.0125 27.9651 26.3775 27.9651C26.2969 27.9648 26.2167 27.9775 26.14 28.0024C25.66 28.1575 25.045 28.8425 25.045 30.6675C25.045 31.2375 24.595 31.5649 24.2775 31.5649L22.56 31.5649C21.975 31.5649 18.9275 31.3601 16.2275 28.5125C12.9225 25.0249 9.94751 18.03 9.92249 17.9651C9.73499 17.5125 10.1225 17.27 10.545 17.27L14.3325 17.27C14.8375 17.27 15.0025 17.5774 15.1175 17.8501C15.2525 18.1675 15.7475 19.4299 16.56 20.8501C17.8775 23.165 18.685 24.105 19.3325 24.105C19.4539 24.1035 19.5732 24.0728 19.68 24.0149C20.525 23.5449 20.3675 20.5325 20.33 19.9075C20.33 19.79 20.3275 18.5601 19.895 17.97C19.585 17.5425 19.0575 17.3799 18.7375 17.3201C18.867 17.1414 19.0377 16.9963 19.235 16.8975C19.815 16.6074 20.86 16.5649 21.8975 16.5649L22.475 16.5649C23.6 16.5801 23.89 16.6526 24.2975 16.7549C25.1225 16.9524 25.14 17.4851 25.0675 19.3076C25.045 19.825 25.0225 20.4099 25.0225 21.1001C25.0225 21.25 25.015 21.4099 25.015 21.5801C24.99 22.5076 24.96 23.5601 25.615 23.9924C25.7004 24.0461 25.7992 24.0747 25.9 24.075C26.1275 24.075 26.8125 24.075 28.6675 20.8926C29.2396 19.8682 29.7368 18.8037 30.155 17.7075C30.1925 17.6426 30.3025 17.4424 30.4325 17.365C30.5284 17.3162 30.6348 17.2913 30.7425 17.2925L35.195 17.2925C35.68 17.2925 36.0125 17.365 36.075 17.5525C36.185 17.8501 36.055 18.7576 34.0225 21.51L33.115 22.7075C31.2725 25.1226 31.2725 25.2451 33.23 27.0774Z" fill="#FFFFFF" fill-opacity="1.000000" fill-rule="nonzero"/>
</svg>
